<?xml version="1.0" encoding="utf-8"?>
<svg version="1.1" xmlns:xlink="http://www.w3.org/1999/xlink" width="16px" height="16px" viewBox="736 347 16 16" xmlns="http://www.w3.org/2000/svg">
  <path d="M 736 352  A 5 5 0 0 1 741 347 L 747 347  A 5 5 0 0 1 752 352 L 752 358  A 5 5 0 0 1 747 363 L 741 363  A 5 5 0 0 1 736 358 L 736 352  Z " fill-rule="nonzero" fill="rgba(240, 240, 240, 1)" stroke="none" class="fill" />
  <path d="M 736.5 352  A 4.5 4.5 0 0 1 741 347.5 L 747 347.5  A 4.5 4.5 0 0 1 751.5 352 L 751.5 358  A 4.5 4.5 0 0 1 747 362.5 L 741 362.5  A 4.5 4.5 0 0 1 736.5 358 L 736.5 352  Z " stroke-width="1" stroke-dasharray="0" stroke="rgba(255, 255, 255, 0.4)" fill="none" class="stroke" stroke-dashoffset="0.5" />
</svg>